%FSLAX25Y25*%
%MOIN*%
G70*
G01*
G75*
%ADD10R,0.04331X0.06693*%
%ADD11R,0.06693X0.04331*%
%ADD12R,0.06299X0.12992*%
%ADD13R,0.06299X0.04724*%
%ADD14R,0.24606X0.26772*%
%ADD15R,0.05906X0.11811*%
%ADD16C,0.01000*%
%ADD17C,0.01969*%
%ADD18C,0.05906*%
%ADD19R,0.05906X0.05906*%
%ADD20C,0.19685*%
%ADD21C,0.07100*%
%ADD22C,0.07874*%
%ADD23R,0.07874X0.07874*%
%ADD24R,0.07874X0.07874*%
%ADD25R,0.05906X0.05906*%
%ADD26C,0.05512*%
%ADD27C,0.05000*%
%ADD28C,0.01181*%
D10*
X88685Y14000D02*
D03*
X99315D02*
D03*
X87315Y234000D02*
D03*
X76685D02*
D03*
X18685Y138000D02*
D03*
X29315D02*
D03*
Y118000D02*
D03*
X18685D02*
D03*
X52685Y14000D02*
D03*
X63315D02*
D03*
D11*
X120748Y241669D02*
D03*
Y252299D02*
D03*
X106000Y92685D02*
D03*
Y103315D02*
D03*
Y125315D02*
D03*
Y114685D02*
D03*
D12*
X68803Y257055D02*
D03*
D13*
X94000Y266110D02*
D03*
Y257055D02*
D03*
Y248000D02*
D03*
D14*
X64000Y60000D02*
D03*
X24000Y188000D02*
D03*
D15*
X55000Y34016D02*
D03*
X73000D02*
D03*
X15000Y162016D02*
D03*
X33000D02*
D03*
D18*
X154000Y224000D02*
D03*
X74803Y194724D02*
D03*
Y184724D02*
D03*
Y174724D02*
D03*
Y164724D02*
D03*
Y154724D02*
D03*
Y144724D02*
D03*
Y134724D02*
D03*
Y124724D02*
D03*
Y114724D02*
D03*
Y104724D02*
D03*
Y94724D02*
D03*
X134803Y194724D02*
D03*
Y184724D02*
D03*
Y174724D02*
D03*
Y164724D02*
D03*
Y154724D02*
D03*
Y144724D02*
D03*
Y134724D02*
D03*
Y124724D02*
D03*
Y114724D02*
D03*
Y104724D02*
D03*
Y94724D02*
D03*
X55118Y194724D02*
D03*
Y184724D02*
D03*
Y174724D02*
D03*
Y164724D02*
D03*
Y154724D02*
D03*
Y144724D02*
D03*
Y134724D02*
D03*
Y124724D02*
D03*
Y114724D02*
D03*
Y104724D02*
D03*
Y94724D02*
D03*
X154488Y194724D02*
D03*
Y184724D02*
D03*
Y174724D02*
D03*
Y164724D02*
D03*
Y154724D02*
D03*
Y144724D02*
D03*
Y134724D02*
D03*
Y124724D02*
D03*
Y114724D02*
D03*
Y104724D02*
D03*
Y94724D02*
D03*
X112000Y37976D02*
D03*
X37976Y96000D02*
D03*
D19*
X154000Y234000D02*
D03*
X74803Y204724D02*
D03*
X134803D02*
D03*
X55118D02*
D03*
X154488D02*
D03*
X112000Y10024D02*
D03*
D20*
X27559Y19685D02*
D03*
Y263780D02*
D03*
X182283D02*
D03*
Y19685D02*
D03*
D21*
X190000Y232000D02*
D03*
Y212315D02*
D03*
Y176000D02*
D03*
Y156315D02*
D03*
Y120000D02*
D03*
Y100315D02*
D03*
Y64000D02*
D03*
Y44315D02*
D03*
D22*
X136000Y227409D02*
D03*
X89409Y60000D02*
D03*
X21409Y224000D02*
D03*
D23*
X136000Y268591D02*
D03*
D24*
X130591Y60000D02*
D03*
X62591Y224000D02*
D03*
D25*
X10024Y96000D02*
D03*
D26*
X98000Y165000D02*
D03*
Y195000D02*
D03*
X118000D02*
D03*
Y165000D02*
D03*
M02*
