%FSLAX25Y25*%
%MOIN*%
G70*
G01*
G75*
%ADD10R,0.04331X0.06693*%
%ADD11R,0.06693X0.04331*%
%ADD12R,0.06299X0.12992*%
%ADD13R,0.06299X0.04724*%
%ADD14R,0.24606X0.26772*%
%ADD15R,0.05906X0.11811*%
%ADD16C,0.01000*%
%ADD17C,0.01969*%
%ADD18C,0.05906*%
%ADD19R,0.05906X0.05906*%
%ADD20C,0.19685*%
%ADD21C,0.07100*%
%ADD22C,0.07874*%
%ADD23R,0.07874X0.07874*%
%ADD24R,0.07874X0.07874*%
%ADD25R,0.05906X0.05906*%
%ADD26C,0.05512*%
%ADD27C,0.05000*%
%ADD28C,0.01181*%
%ADD29C,0.02000*%
%ADD30C,0.00787*%
%ADD31C,0.00600*%
%ADD32R,0.11024X0.03150*%
%ADD33R,0.03150X0.11024*%
%ADD34R,0.07480X0.03150*%
%ADD35R,0.03150X0.07480*%
D16*
X73500Y243000D02*
X89000D01*
X73500D02*
Y271000D01*
X89000D01*
Y243000D02*
Y271000D01*
X203740Y247047D02*
Y249047D01*
Y248047D01*
X197742D01*
X198742Y247047D01*
X203740Y256044D02*
Y252046D01*
X199741Y256044D01*
X198742D01*
X197742Y255045D01*
Y253045D01*
X198742Y252046D01*
X197742Y258044D02*
X201741D01*
X203740Y260043D01*
X201741Y262042D01*
X197742D01*
X88496Y136551D02*
X84497D01*
X82498Y138550D01*
X84497Y140550D01*
X88496D01*
X85497D01*
Y136551D01*
X84497Y142549D02*
X88496D01*
X86497D01*
X85497Y143549D01*
X84497Y144549D01*
Y145548D01*
X82498Y152546D02*
X88496D01*
Y149547D01*
X87496Y148547D01*
X85497D01*
X84497Y149547D01*
Y152546D01*
X82498Y154545D02*
X88496D01*
Y158544D01*
X125803Y136488D02*
X121804D01*
X119805Y138488D01*
X121804Y140487D01*
X125803D01*
X122804D01*
Y136488D01*
X121804Y142486D02*
X125803D01*
X123804D01*
X122804Y143486D01*
X121804Y144486D01*
Y145485D01*
X119805Y152483D02*
X125803D01*
Y149484D01*
X124803Y148484D01*
X122804D01*
X121804Y149484D01*
Y152483D01*
X125803Y154482D02*
X119805D01*
Y157481D01*
X120805Y158481D01*
X122804D01*
X123804Y157481D01*
Y154482D01*
Y156482D02*
X125803Y158481D01*
X82298Y226487D02*
X81298Y227486D01*
X79299D01*
X78299Y226487D01*
Y222488D01*
X79299Y221488D01*
X81298D01*
X82298Y222488D01*
X84297Y221488D02*
X86297D01*
X85297D01*
Y227486D01*
X84297Y226487D01*
X118592Y261873D02*
X117593Y260873D01*
Y258874D01*
X118592Y257874D01*
X122591D01*
X123591Y258874D01*
Y260873D01*
X122591Y261873D01*
X123591Y267871D02*
Y263872D01*
X119592Y267871D01*
X118592D01*
X117593Y266871D01*
Y264872D01*
X118592Y263872D01*
X181041Y133813D02*
X182040Y132813D01*
X184040D01*
X185039Y133813D01*
Y137811D01*
X184040Y138811D01*
X182040D01*
X181041Y137811D01*
X178042Y138811D02*
X176042D01*
X175043Y137811D01*
Y135812D01*
X176042Y134812D01*
X178042D01*
X179041Y135812D01*
Y137811D01*
X178042Y138811D01*
X173043D02*
Y134812D01*
X172044D01*
X171044Y135812D01*
Y138811D01*
Y135812D01*
X170044Y134812D01*
X169044Y135812D01*
Y138811D01*
X167045Y140810D02*
Y134812D01*
X164046D01*
X163047Y135812D01*
Y137811D01*
X164046Y138811D01*
X167045D01*
X132498Y243142D02*
X138496D01*
Y246141D01*
X137496Y247140D01*
X133498D01*
X132498Y246141D01*
Y243142D01*
X138496Y249140D02*
Y251139D01*
Y250139D01*
X132498D01*
X133498Y249140D01*
X103402Y62808D02*
Y56810D01*
X106401D01*
X107401Y57810D01*
Y61808D01*
X106401Y62808D01*
X103402D01*
X113399Y56810D02*
X109400D01*
X113399Y60809D01*
Y61808D01*
X112399Y62808D01*
X110399D01*
X109400Y61808D01*
X35756Y227122D02*
Y221124D01*
X38755D01*
X39755Y222124D01*
Y226123D01*
X38755Y227122D01*
X35756D01*
X41754Y226123D02*
X42754Y227122D01*
X44753D01*
X45753Y226123D01*
Y225123D01*
X44753Y224123D01*
X43753D01*
X44753D01*
X45753Y223124D01*
Y222124D01*
X44753Y221124D01*
X42754D01*
X41754Y222124D01*
X153599Y248398D02*
X151599D01*
X152599D01*
Y243400D01*
X151599Y242400D01*
X150600D01*
X149600Y243400D01*
X155598Y242400D02*
X157597D01*
X156598D01*
Y248398D01*
X155598Y247398D01*
X30614Y209945D02*
Y203947D01*
X26616Y209945D01*
Y203947D01*
X24616Y209945D02*
Y203947D01*
X22617Y205946D01*
X20617Y203947D01*
Y209945D01*
X18618D02*
X16619D01*
X17618D01*
Y203947D01*
X18618Y204946D01*
X70811Y81976D02*
Y75978D01*
X66812Y81976D01*
Y75978D01*
X64813Y81976D02*
Y75978D01*
X62814Y77978D01*
X60814Y75978D01*
Y81976D01*
X54816D02*
X58815D01*
X54816Y77978D01*
Y76978D01*
X55816Y75978D01*
X57815D01*
X58815Y76978D01*
X185008Y83693D02*
Y77695D01*
X182009D01*
X181009Y78694D01*
Y80694D01*
X182009Y81694D01*
X185008D01*
X175011Y78694D02*
X176011Y77695D01*
X178010D01*
X179010Y78694D01*
Y79694D01*
X178010Y80694D01*
X176011D01*
X175011Y81694D01*
Y82693D01*
X176011Y83693D01*
X178010D01*
X179010Y82693D01*
X173012Y77695D02*
Y83693D01*
X171012Y81694D01*
X169013Y83693D01*
Y77695D01*
X84031Y249795D02*
X78033D01*
Y252794D01*
X79033Y253794D01*
X81033D01*
X82032Y252794D01*
Y249795D01*
X78033Y255793D02*
X84031D01*
X82032Y257793D01*
X84031Y259792D01*
X78033D01*
X84031Y261791D02*
Y263791D01*
Y262791D01*
X78033D01*
X79033Y261791D01*
X55118Y2953D02*
Y8951D01*
X58117D01*
X59117Y7951D01*
Y5952D01*
X58117Y4952D01*
X55118D01*
X57117D02*
X59117Y2953D01*
X61116D02*
X63116D01*
X62116D01*
Y8951D01*
X61116Y7951D01*
X13780Y143701D02*
Y149699D01*
X16779D01*
X17778Y148699D01*
Y146700D01*
X16779Y145700D01*
X13780D01*
X15779D02*
X17778Y143701D01*
X23776D02*
X19778D01*
X23776Y147699D01*
Y148699D01*
X22777Y149699D01*
X20777D01*
X19778Y148699D01*
X86950Y20950D02*
Y26948D01*
X89949D01*
X90949Y25948D01*
Y23949D01*
X89949Y22949D01*
X86950D01*
X88949D02*
X90949Y20950D01*
X92948Y25948D02*
X93948Y26948D01*
X95947D01*
X96947Y25948D01*
Y24949D01*
X95947Y23949D01*
X94947D01*
X95947D01*
X96947Y22949D01*
Y21950D01*
X95947Y20950D01*
X93948D01*
X92948Y21950D01*
X13780Y124016D02*
Y130014D01*
X16779D01*
X17778Y129014D01*
Y127015D01*
X16779Y126015D01*
X13780D01*
X15779D02*
X17778Y124016D01*
X22777D02*
Y130014D01*
X19778Y127015D01*
X23776D01*
X117724Y93504D02*
X111726D01*
Y96503D01*
X112726Y97503D01*
X114725D01*
X115725Y96503D01*
Y93504D01*
Y95503D02*
X117724Y97503D01*
X111726Y103501D02*
Y99502D01*
X114725D01*
X113726Y101501D01*
Y102501D01*
X114725Y103501D01*
X116725D01*
X117724Y102501D01*
Y100502D01*
X116725Y99502D01*
X118110Y115157D02*
X112112D01*
Y118157D01*
X113112Y119156D01*
X115111D01*
X116111Y118157D01*
Y115157D01*
Y117157D02*
X118110Y119156D01*
X112112Y125154D02*
X113112Y123155D01*
X115111Y121156D01*
X117111D01*
X118110Y122155D01*
Y124155D01*
X117111Y125154D01*
X116111D01*
X115111Y124155D01*
Y121156D01*
X91535Y174213D02*
X85537D01*
Y177212D01*
X86537Y178211D01*
X88536D01*
X89536Y177212D01*
Y174213D01*
Y176212D02*
X91535Y178211D01*
X85537Y180211D02*
Y184209D01*
X86537D01*
X90536Y180211D01*
X91535D01*
X112205Y174213D02*
X106207D01*
Y177212D01*
X107206Y178211D01*
X109206D01*
X110205Y177212D01*
Y174213D01*
Y176212D02*
X112205Y178211D01*
X107206Y180211D02*
X106207Y181210D01*
Y183210D01*
X107206Y184209D01*
X108206D01*
X109206Y183210D01*
X110205Y184209D01*
X111205D01*
X112205Y183210D01*
Y181210D01*
X111205Y180211D01*
X110205D01*
X109206Y181210D01*
X108206Y180211D01*
X107206D01*
X109206Y181210D02*
Y183210D01*
X185039Y195008D02*
Y189010D01*
X182040D01*
X181041Y190009D01*
Y192009D01*
X182040Y193008D01*
X185039D01*
X183040D02*
X181041Y195008D01*
X175043Y190009D02*
X176042Y189010D01*
X178042D01*
X179041Y190009D01*
Y191009D01*
X178042Y192009D01*
X176042D01*
X175043Y193008D01*
Y194008D01*
X176042Y195008D01*
X178042D01*
X179041Y194008D01*
X173043Y189010D02*
Y195008D01*
X169044D01*
X17717Y108486D02*
X21715D01*
Y107487D01*
X17717Y103488D01*
Y102488D01*
X21715D01*
X23715Y108486D02*
Y102488D01*
X26714D01*
X27713Y103488D01*
Y107487D01*
X26714Y108486D01*
X23715D01*
X29713Y102488D02*
X31712D01*
X30712D01*
Y108486D01*
X29713Y107487D01*
X125077Y32756D02*
Y28757D01*
X124077D01*
X120078Y32756D01*
X119079D01*
Y28757D01*
X125077Y26758D02*
X119079D01*
Y23759D01*
X120078Y22759D01*
X124077D01*
X125077Y23759D01*
Y26758D01*
X119079Y16761D02*
Y20760D01*
X123077Y16761D01*
X124077D01*
X125077Y17761D01*
Y19760D01*
X124077Y20760D01*
D29*
X191500Y249342D02*
X191149Y250307D01*
X190261Y250820D01*
X189250Y250642D01*
X188591Y249855D01*
Y248830D01*
X189250Y248043D01*
X190261Y247865D01*
X191149Y248378D01*
X191500Y249342D01*
Y193342D02*
X191149Y194307D01*
X190261Y194820D01*
X189250Y194642D01*
X188591Y193856D01*
Y192830D01*
X189250Y192043D01*
X190261Y191865D01*
X191149Y192378D01*
X191500Y193342D01*
Y137343D02*
X191149Y138307D01*
X190261Y138820D01*
X189250Y138642D01*
X188591Y137856D01*
Y136829D01*
X189250Y136044D01*
X190261Y135865D01*
X191149Y136378D01*
X191500Y137343D01*
Y81343D02*
X191149Y82307D01*
X190261Y82820D01*
X189250Y82642D01*
X188591Y81856D01*
Y80830D01*
X189250Y80044D01*
X190261Y79865D01*
X191149Y80378D01*
X191500Y81343D01*
D30*
X92425Y16953D02*
X95575D01*
X92425Y11047D02*
X95575D01*
X159000Y219000D02*
Y239000D01*
X149000D02*
X159000D01*
X149000Y219000D02*
Y239000D01*
Y219000D02*
X159000D01*
X69803Y89724D02*
X79803D01*
X69803D02*
Y209724D01*
X79803D01*
Y202224D02*
Y209724D01*
Y89724D02*
Y202224D01*
X129803Y89724D02*
X139803D01*
X129803D02*
Y209724D01*
X139803D01*
Y202224D02*
Y209724D01*
Y89724D02*
Y202224D01*
X50118Y89724D02*
X60118D01*
X50118D02*
Y209724D01*
X60118D01*
Y202224D02*
Y209724D01*
Y89724D02*
Y202224D01*
X149488Y89724D02*
X159488D01*
X149488D02*
Y209724D01*
X159488D01*
Y202224D02*
Y209724D01*
Y89724D02*
Y202224D01*
X130488Y237567D02*
X141512D01*
X130488D02*
Y258433D01*
X141512Y237567D02*
Y258433D01*
X99567Y54488D02*
Y65512D01*
X120433D01*
X99567Y54488D02*
X120433D01*
X31567Y218488D02*
Y229512D01*
X52433D01*
X31567Y218488D02*
X52433D01*
X117795Y245409D02*
Y248559D01*
X123701Y245409D02*
Y248559D01*
X80425Y231047D02*
X83575D01*
X80425Y236953D02*
X83575D01*
X108260Y16323D02*
Y31677D01*
X115740Y16323D02*
Y31677D01*
X108260D02*
X115740D01*
X16323Y99740D02*
X31677D01*
X16323Y92260D02*
X31677D01*
Y99740D01*
X103047Y96425D02*
Y99575D01*
X108953Y96425D02*
Y99575D01*
X98000Y190000D02*
Y190900D01*
Y169100D02*
Y170000D01*
Y190000D02*
X101000D01*
Y170000D02*
Y190000D01*
X95000Y170000D02*
X101000D01*
X95000D02*
Y190000D01*
X98000D01*
X118000Y169100D02*
Y170000D01*
Y190000D02*
Y190900D01*
X115000Y170000D02*
X118000D01*
X115000D02*
Y190000D01*
X121000D01*
Y170000D02*
Y190000D01*
X118000Y170000D02*
X121000D01*
X108953Y118425D02*
Y121575D01*
X103047Y118425D02*
Y121575D01*
X22425Y140953D02*
X25575D01*
X22425Y135047D02*
X25575D01*
X22425Y115047D02*
X25575D01*
X22425Y120953D02*
X25575D01*
X56425Y16953D02*
X59575D01*
X56425Y11047D02*
X59575D01*
D31*
X169815Y201972D02*
Y242343D01*
Y201972D02*
X206248D01*
Y242343D01*
X169815D02*
X206248D01*
X169815Y145972D02*
Y186343D01*
Y145972D02*
X206248D01*
Y186343D01*
X169815D02*
X206248D01*
X169815Y89972D02*
Y130343D01*
Y89972D02*
X206248D01*
Y130343D01*
X169815D02*
X206248D01*
X169815Y33972D02*
Y74343D01*
Y33972D02*
X206248D01*
Y74343D01*
X169815D02*
X206248D01*
D32*
X136017Y257252D02*
D03*
D33*
X119252Y59989D02*
D03*
X51252Y223993D02*
D03*
D34*
X112000Y17504D02*
D03*
D35*
X17504Y96000D02*
D03*
M02*
