%FSLAX25Y25*%
%MOIN*%
G70*
G01*
G75*
G04 Layer_Color=32768*
%ADD10R,0.04331X0.06693*%
%ADD11R,0.06693X0.04331*%
%ADD12R,0.06299X0.12992*%
%ADD13R,0.06299X0.04724*%
%ADD14R,0.24606X0.26772*%
%ADD15R,0.05906X0.11811*%
%ADD16C,0.01000*%
%ADD17C,0.01969*%
%ADD18C,0.05906*%
%ADD19R,0.05906X0.05906*%
%ADD20C,0.19685*%
%ADD21C,0.07100*%
%ADD22C,0.07874*%
%ADD23R,0.07874X0.07874*%
%ADD24R,0.07874X0.07874*%
%ADD25R,0.05906X0.05906*%
%ADD26C,0.05512*%
%ADD27C,0.05000*%
%ADD28C,0.01181*%
%ADD29C,0.02000*%
%ADD30C,0.00787*%
%ADD31C,0.00600*%
%ADD32R,0.11024X0.03150*%
%ADD33R,0.03150X0.11024*%
%ADD34R,0.07480X0.03150*%
%ADD35R,0.03150X0.07480*%
%ADD36R,0.05131X0.07493*%
%ADD37R,0.07493X0.05131*%
%ADD38R,0.07099X0.13792*%
%ADD39R,0.07099X0.05524*%
%ADD40R,0.25406X0.27572*%
%ADD41R,0.06706X0.12611*%
%ADD42C,0.06706*%
%ADD43R,0.06706X0.06706*%
%ADD44C,0.20485*%
%ADD45C,0.08674*%
%ADD46R,0.08674X0.08674*%
%ADD47R,0.08674X0.08674*%
%ADD48R,0.06706X0.06706*%
%ADD49C,0.06312*%
%ADD50C,0.05800*%
%ADD51C,0.00394*%
%ADD52C,0.00100*%
G36*
X206748Y89472D02*
X169315D01*
Y130842D01*
X206748D01*
Y89472D01*
D02*
G37*
G36*
Y33472D02*
X169315D01*
Y74843D01*
X206748D01*
Y33472D01*
D02*
G37*
G36*
Y201472D02*
X169315D01*
Y242843D01*
X206748D01*
Y201472D01*
D02*
G37*
G36*
Y145472D02*
X169315D01*
Y186843D01*
X206748D01*
Y145472D01*
D02*
G37*
D31*
X169315Y242843D02*
X206748D01*
X169315Y201472D02*
Y242843D01*
Y201472D02*
X206748D01*
Y242843D01*
X169315Y186843D02*
X206748D01*
X169315Y145472D02*
Y186843D01*
Y145472D02*
X206748D01*
Y186843D01*
X169315Y130843D02*
X206748D01*
X169315Y89472D02*
Y130843D01*
Y89472D02*
X206748D01*
Y130843D01*
X169315Y74843D02*
X206748D01*
X169315Y33472D02*
Y74843D01*
Y33472D02*
X206748D01*
Y74843D01*
D51*
X86126Y10260D02*
Y17740D01*
X101874Y10260D02*
Y17740D01*
X86126D02*
X101874D01*
X86126Y10260D02*
X101874D01*
X92032Y14000D02*
X95969D01*
X94000Y12032D02*
Y15969D01*
X117008Y239110D02*
X124488D01*
X117008Y254858D02*
X124488D01*
X117008Y239110D02*
Y254858D01*
X124488Y239110D02*
Y254858D01*
X120748Y245016D02*
Y248953D01*
X118780Y246984D02*
X122717D01*
X89874Y230260D02*
Y237740D01*
X74126Y230260D02*
Y237740D01*
Y230260D02*
X89874D01*
X74126Y237740D02*
X89874D01*
X80032Y234000D02*
X83969D01*
X82000Y232031D02*
Y235968D01*
X102260Y90126D02*
X109740D01*
X102260Y105874D02*
X109740D01*
X102260Y90126D02*
Y105874D01*
X109740Y90126D02*
Y105874D01*
X106000Y96032D02*
Y99969D01*
X104031Y98000D02*
X107969D01*
X102260Y127874D02*
X109740D01*
X102260Y112126D02*
X109740D01*
Y127874D01*
X102260Y112126D02*
Y127874D01*
X106000Y118032D02*
Y121969D01*
X104032Y120000D02*
X107969D01*
X16126Y134260D02*
Y141740D01*
X31874Y134260D02*
Y141740D01*
X16126D02*
X31874D01*
X16126Y134260D02*
X31874D01*
X22032Y138000D02*
X25969D01*
X24000Y136032D02*
Y139969D01*
X31874Y114260D02*
Y121740D01*
X16126Y114260D02*
Y121740D01*
Y114260D02*
X31874D01*
X16126Y121740D02*
X31874D01*
X22032Y118000D02*
X25969D01*
X24000Y116031D02*
Y119969D01*
X50126Y10260D02*
Y17740D01*
X65874Y10260D02*
Y17740D01*
X50126D02*
X65874D01*
X50126Y10260D02*
X65874D01*
X56032Y14000D02*
X59969D01*
X58000Y12032D02*
Y15969D01*
M02*
