M48
;Layer_Color=9474304
;FILE_FORMAT=2:4
INCH,TZ
;TYPE=PLATED
T1F00S00C0.0280
T2F00S00C0.0335
T3F00S00C0.0354
T4F00S00C0.0472
T5F00S00C0.0510
T6F00S00C0.1181
%
T01
X7185Y2067
X2854Y14862
T02
X9800Y16500
X11800
Y19500
X9800
T03
X1002Y9600
X3798
X5512Y9472
Y10472
Y11472
Y12472
Y13472
Y14472
Y15472
X7480
Y14472
Y13472
Y12472
Y11472
Y10472
Y9472
X13480
Y10472
Y11472
Y12472
Y13472
Y14472
Y15472
X15449
Y14472
Y13472
Y12472
Y11472
Y10472
Y9472
X11200Y3798
Y1002
X13480Y16472
Y17472
Y18472
Y19472
Y20472
X15449
Y19472
Y18472
Y17472
Y16472
X15400Y22400
Y23400
X7480Y20472
Y19472
Y18472
Y17472
Y16472
X5512
Y17472
Y18472
Y19472
Y20472
T04
X8941Y6000
X13059
X13600Y22741
Y26859
X6259Y22400
X2141
T05
X19000Y4432
Y6400
Y10031
Y12000
Y15632
Y17600
Y21232
Y23200
T06
X2756Y1969
X18228
Y26378
X2756
M30
