%FSLAX25Y25*%
%MOIN*%
G70*
G01*
G75*
G04 Layer_Color=16711935*
%ADD10R,0.04331X0.06693*%
%ADD11R,0.06693X0.04331*%
%ADD12R,0.06299X0.12992*%
%ADD13R,0.06299X0.04724*%
%ADD14R,0.24606X0.26772*%
%ADD15R,0.05906X0.11811*%
%ADD16C,0.01000*%
%ADD17C,0.01969*%
%ADD18C,0.05906*%
%ADD19R,0.05906X0.05906*%
%ADD20C,0.19685*%
%ADD21C,0.07100*%
%ADD22C,0.07874*%
%ADD23R,0.07874X0.07874*%
%ADD24R,0.07874X0.07874*%
%ADD25R,0.05906X0.05906*%
%ADD26C,0.05512*%
%ADD27C,0.05000*%
%ADD28C,0.01181*%
%ADD29C,0.02000*%
%ADD30C,0.00787*%
%ADD31C,0.00600*%
%ADD32R,0.11024X0.03150*%
%ADD33R,0.03150X0.11024*%
%ADD34R,0.07480X0.03150*%
%ADD35R,0.03150X0.07480*%
%ADD36R,0.05131X0.07493*%
%ADD37R,0.07493X0.05131*%
%ADD38R,0.07099X0.13792*%
%ADD39R,0.07099X0.05524*%
%ADD40R,0.25406X0.27572*%
%ADD41R,0.06706X0.12611*%
%ADD42C,0.06706*%
%ADD43R,0.06706X0.06706*%
%ADD44C,0.20485*%
%ADD45C,0.08674*%
%ADD46R,0.08674X0.08674*%
%ADD47R,0.08674X0.08674*%
%ADD48R,0.06706X0.06706*%
%ADD49C,0.06312*%
%ADD50C,0.05800*%
D21*
X190000Y232000D02*
D03*
Y212315D02*
D03*
Y176000D02*
D03*
Y156315D02*
D03*
Y120000D02*
D03*
Y100315D02*
D03*
Y64000D02*
D03*
Y44315D02*
D03*
D42*
X154000Y224000D02*
D03*
X74803Y194724D02*
D03*
Y184724D02*
D03*
Y174724D02*
D03*
Y164724D02*
D03*
Y154724D02*
D03*
Y144724D02*
D03*
Y134724D02*
D03*
Y124724D02*
D03*
Y114724D02*
D03*
Y104724D02*
D03*
Y94724D02*
D03*
X134803Y194724D02*
D03*
Y184724D02*
D03*
Y174724D02*
D03*
Y164724D02*
D03*
Y154724D02*
D03*
Y144724D02*
D03*
Y134724D02*
D03*
Y124724D02*
D03*
Y114724D02*
D03*
Y104724D02*
D03*
Y94724D02*
D03*
X55118Y194724D02*
D03*
Y184724D02*
D03*
Y174724D02*
D03*
Y164724D02*
D03*
Y154724D02*
D03*
Y144724D02*
D03*
Y134724D02*
D03*
Y124724D02*
D03*
Y114724D02*
D03*
Y104724D02*
D03*
Y94724D02*
D03*
X154488Y194724D02*
D03*
Y184724D02*
D03*
Y174724D02*
D03*
Y164724D02*
D03*
Y154724D02*
D03*
Y144724D02*
D03*
Y134724D02*
D03*
Y124724D02*
D03*
Y114724D02*
D03*
Y104724D02*
D03*
Y94724D02*
D03*
X112000Y37976D02*
D03*
X37976Y96000D02*
D03*
D43*
X154000Y234000D02*
D03*
X74803Y204724D02*
D03*
X134803D02*
D03*
X55118D02*
D03*
X154488D02*
D03*
X112000Y10024D02*
D03*
D44*
X27559Y19685D02*
D03*
Y263780D02*
D03*
X182283D02*
D03*
Y19685D02*
D03*
D45*
X136000Y227409D02*
D03*
X89409Y60000D02*
D03*
X21409Y224000D02*
D03*
D46*
X136000Y268591D02*
D03*
D47*
X130591Y60000D02*
D03*
X62591Y224000D02*
D03*
D48*
X10024Y96000D02*
D03*
D49*
X98000Y165000D02*
D03*
Y195000D02*
D03*
X118000D02*
D03*
Y165000D02*
D03*
D50*
X28543Y148622D02*
D03*
X71850Y20669D02*
D03*
M02*
