%FSLAX25Y25*%
%MOIN*%
G70*
G01*
G75*
G04 Layer_Physical_Order=1*
G04 Layer_Color=255*
%ADD10R,0.04331X0.06693*%
%ADD11R,0.06693X0.04331*%
%ADD12R,0.06299X0.12992*%
%ADD13R,0.06299X0.04724*%
%ADD14R,0.24606X0.26772*%
%ADD15R,0.05906X0.11811*%
%ADD16C,0.01000*%
%ADD17C,0.01969*%
%ADD18C,0.05906*%
%ADD19R,0.05906X0.05906*%
%ADD20C,0.19685*%
%ADD21C,0.07100*%
%ADD22C,0.07874*%
%ADD23R,0.07874X0.07874*%
%ADD24R,0.07874X0.07874*%
%ADD25R,0.05906X0.05906*%
%ADD26C,0.05512*%
%ADD27C,0.05000*%
D10*
X88685Y14000D02*
D03*
X99315D02*
D03*
X87315Y234000D02*
D03*
X76685D02*
D03*
X18685Y138000D02*
D03*
X29315D02*
D03*
Y118000D02*
D03*
X18685D02*
D03*
X52685Y14000D02*
D03*
X63315D02*
D03*
D11*
X120748Y241669D02*
D03*
Y252299D02*
D03*
X106000Y92685D02*
D03*
Y103315D02*
D03*
Y125315D02*
D03*
Y114685D02*
D03*
D12*
X68803Y257055D02*
D03*
D13*
X94000Y266110D02*
D03*
Y257055D02*
D03*
Y248000D02*
D03*
D14*
X64000Y60000D02*
D03*
X24000Y188000D02*
D03*
D15*
X55000Y34016D02*
D03*
X73000D02*
D03*
X15000Y162016D02*
D03*
X33000D02*
D03*
D16*
X154488Y204724D02*
Y214100D01*
X154000Y214588D02*
X154488Y214100D01*
X154000Y214588D02*
Y224000D01*
X18685Y118000D02*
Y138000D01*
Y148100D01*
X15000Y151785D02*
X18685Y148100D01*
X15000Y151785D02*
Y162016D01*
X74803Y114724D02*
X90300D01*
X90339Y114685D01*
X106000D01*
Y103315D02*
Y114685D01*
X64000Y60000D02*
Y61459D01*
X33000Y162016D02*
Y163200D01*
X112400Y168000D02*
X119124Y174724D01*
X112400Y127715D02*
Y168000D01*
X110000Y125315D02*
X112400Y127715D01*
X106000Y125315D02*
X110000D01*
X61900Y224000D02*
X62591D01*
X129776Y174724D02*
X134803D01*
X120700Y241669D02*
X120748D01*
X118000Y151528D02*
Y165000D01*
Y151528D02*
X134803Y134724D01*
X29315Y138000D02*
Y139200D01*
X10024Y96000D02*
X18685Y104661D01*
Y118000D01*
X29315Y104661D02*
X37976Y96000D01*
X29315Y104661D02*
Y118000D01*
X120700Y241669D02*
X120748D01*
X28500Y139200D02*
X29315D01*
X119124Y174724D02*
X129776D01*
X182037Y212686D02*
X182087Y212637D01*
X106000Y62307D02*
Y92685D01*
Y62307D02*
X119707Y48600D01*
X181200D01*
X190000Y57400D01*
Y64000D01*
X29315Y118000D02*
Y125915D01*
X35433Y132033D01*
Y140137D01*
Y151479D01*
X33000Y153912D02*
X35433Y151479D01*
X33000Y153912D02*
Y162016D01*
X28543Y148622D02*
X29315Y147850D01*
Y138000D02*
Y147850D01*
X119600Y252299D02*
X120748D01*
X76685Y227815D02*
X129776Y174724D01*
X76685Y227815D02*
Y234000D01*
X65181Y14000D02*
X71850Y20669D01*
X63315Y14000D02*
X65181D01*
X99315D02*
X103291Y10024D01*
X112000D01*
X88685Y14000D02*
Y18331D01*
X73000Y34016D02*
X88685Y18331D01*
X52685Y10307D02*
Y14000D01*
Y10307D02*
X58071Y4921D01*
X94488D01*
X99315Y9748D02*
Y14000D01*
X94488Y4921D02*
X99315Y9748D01*
X52685Y14000D02*
Y22173D01*
X55000Y24488D02*
Y34016D01*
X52685Y22173D02*
X55000Y24488D01*
X4921Y246063D02*
Y250062D01*
X6921Y252061D01*
X8920Y250062D01*
Y246063D01*
Y249062D01*
X4921D01*
X16917Y246063D02*
Y252061D01*
X19916D01*
X20916Y251061D01*
Y249062D01*
X19916Y248062D01*
X16917D01*
X23915Y250062D02*
X25914D01*
X26914Y249062D01*
Y246063D01*
X23915D01*
X22915Y247063D01*
X23915Y248062D01*
X26914D01*
X28914Y246063D02*
Y250062D01*
X31912D01*
X32912Y249062D01*
Y246063D01*
X34912D02*
Y250062D01*
X37911D01*
X38910Y249062D01*
Y246063D01*
X40910D02*
X42909D01*
X41909D01*
Y250062D01*
X40910D01*
X45908Y246063D02*
Y250062D01*
X48907D01*
X49907Y249062D01*
Y246063D01*
X53905Y244064D02*
X54905D01*
X55905Y245063D01*
Y250062D01*
X52906D01*
X51906Y249062D01*
Y247063D01*
X52906Y246063D01*
X55905D01*
X4921Y243203D02*
Y237205D01*
X7920D01*
X8920Y238204D01*
Y242203D01*
X7920Y243203D01*
X4921D01*
X20916D02*
X16917D01*
Y240204D01*
X18917D01*
X16917D01*
Y237205D01*
X22915Y241203D02*
Y237205D01*
Y239204D01*
X23915Y240204D01*
X24915Y241203D01*
X25914D01*
X29913Y237205D02*
X31912D01*
X32912Y238204D01*
Y240204D01*
X31912Y241203D01*
X29913D01*
X28914Y240204D01*
Y238204D01*
X29913Y237205D01*
X34912D02*
X36911D01*
X35911D01*
Y243203D01*
X34912D01*
X39910Y237205D02*
X41909D01*
X40910D01*
Y241203D01*
X39910D01*
X44908Y237205D02*
Y243203D01*
Y239204D02*
X47907Y241203D01*
X44908Y239204D02*
X47907Y237205D01*
D17*
X79803Y61459D02*
X81262Y60000D01*
X89409D01*
X136000Y252000D02*
X154000Y234000D01*
X43594Y163200D02*
X55118Y174724D01*
X120748Y252299D02*
X126000D01*
X24000Y188000D02*
Y206000D01*
X21409Y208591D02*
X24000Y206000D01*
X21409Y208591D02*
Y224000D01*
X73000Y34016D02*
X76961Y37976D01*
X112000D01*
X64000Y61459D02*
X79803D01*
X33000Y163200D02*
X43594D01*
X126000Y252299D02*
X136000Y262299D01*
Y252000D02*
Y262299D01*
X184900Y181100D02*
X190000Y176000D01*
X184900Y181100D02*
Y192550D01*
X182087Y195363D02*
X184900Y192550D01*
X182087Y195363D02*
Y212637D01*
X182037Y212686D02*
Y224038D01*
X184900Y226900D01*
X190000Y232000D01*
X184900Y125100D02*
X190000Y120000D01*
X184900Y125100D02*
Y136550D01*
X181102Y140348D02*
X184900Y136550D01*
X181102Y140348D02*
Y161417D01*
X184900Y165215D01*
Y170900D01*
X190000Y176000D01*
X164370Y94370D02*
X190000Y120000D01*
X164370Y82677D02*
Y94370D01*
X141693Y60000D02*
X164370Y82677D01*
X130591Y60000D02*
X141693D01*
X120700Y232000D02*
X125291Y227409D01*
X136000D01*
Y262299D02*
Y268591D01*
X106937Y266110D02*
X120748Y252299D01*
X94000Y266110D02*
X106937D01*
X68803Y257055D02*
X94000D01*
X68803Y241882D02*
X76685Y234000D01*
X68803Y241882D02*
Y257055D01*
X87315Y234000D02*
X94000Y240685D01*
Y248000D01*
X104700D01*
X120700Y232000D01*
Y241669D01*
D18*
X154000Y224000D02*
D03*
X74803Y194724D02*
D03*
Y184724D02*
D03*
Y174724D02*
D03*
Y164724D02*
D03*
Y154724D02*
D03*
Y144724D02*
D03*
Y134724D02*
D03*
Y124724D02*
D03*
Y114724D02*
D03*
Y104724D02*
D03*
Y94724D02*
D03*
X134803Y194724D02*
D03*
Y184724D02*
D03*
Y174724D02*
D03*
Y164724D02*
D03*
Y154724D02*
D03*
Y144724D02*
D03*
Y134724D02*
D03*
Y124724D02*
D03*
Y114724D02*
D03*
Y104724D02*
D03*
Y94724D02*
D03*
X55118Y194724D02*
D03*
Y184724D02*
D03*
Y174724D02*
D03*
Y164724D02*
D03*
Y154724D02*
D03*
Y144724D02*
D03*
Y134724D02*
D03*
Y124724D02*
D03*
Y114724D02*
D03*
Y104724D02*
D03*
Y94724D02*
D03*
X154488Y194724D02*
D03*
Y184724D02*
D03*
Y174724D02*
D03*
Y164724D02*
D03*
Y154724D02*
D03*
Y144724D02*
D03*
Y134724D02*
D03*
Y124724D02*
D03*
Y114724D02*
D03*
Y104724D02*
D03*
Y94724D02*
D03*
X112000Y37976D02*
D03*
X37976Y96000D02*
D03*
D19*
X154000Y234000D02*
D03*
X74803Y204724D02*
D03*
X134803D02*
D03*
X55118D02*
D03*
X154488D02*
D03*
X112000Y10024D02*
D03*
D20*
X27559Y19685D02*
D03*
Y263780D02*
D03*
X182283D02*
D03*
Y19685D02*
D03*
D21*
X190000Y232000D02*
D03*
Y212315D02*
D03*
Y176000D02*
D03*
Y156315D02*
D03*
Y120000D02*
D03*
Y100315D02*
D03*
Y64000D02*
D03*
Y44315D02*
D03*
D22*
X136000Y227409D02*
D03*
X89409Y60000D02*
D03*
X21409Y224000D02*
D03*
D23*
X136000Y268591D02*
D03*
D24*
X130591Y60000D02*
D03*
X62591Y224000D02*
D03*
D25*
X10024Y96000D02*
D03*
D26*
X98000Y165000D02*
D03*
Y195000D02*
D03*
X118000D02*
D03*
Y165000D02*
D03*
D27*
X28543Y148622D02*
D03*
X71850Y20669D02*
D03*
M02*
