%FSLAX25Y25*%
%MOIN*%
G70*
G01*
G75*
G04 Layer_Color=8421504*
%ADD10R,0.04331X0.06693*%
%ADD11R,0.06693X0.04331*%
%ADD12R,0.06299X0.12992*%
%ADD13R,0.06299X0.04724*%
%ADD14R,0.24606X0.26772*%
%ADD15R,0.05906X0.11811*%
%ADD16C,0.01000*%
%ADD17C,0.01969*%
%ADD18C,0.05906*%
%ADD19R,0.05906X0.05906*%
%ADD20C,0.19685*%
%ADD21C,0.07100*%
%ADD22C,0.07874*%
%ADD23R,0.07874X0.07874*%
%ADD24R,0.07874X0.07874*%
%ADD25R,0.05906X0.05906*%
%ADD26C,0.05512*%
%ADD27C,0.05000*%
%ADD28C,0.01181*%
%ADD29C,0.02000*%
%ADD30C,0.00787*%
%ADD31C,0.00600*%
%ADD32R,0.11024X0.03150*%
%ADD33R,0.03150X0.11024*%
%ADD34R,0.07480X0.03150*%
%ADD35R,0.03150X0.07480*%
D10*
X88685Y14000D02*
D03*
X99315D02*
D03*
X87315Y234000D02*
D03*
X76685D02*
D03*
X18685Y138000D02*
D03*
X29315D02*
D03*
Y118000D02*
D03*
X18685D02*
D03*
X52685Y14000D02*
D03*
X63315D02*
D03*
D11*
X120748Y241669D02*
D03*
Y252299D02*
D03*
X106000Y92685D02*
D03*
Y103315D02*
D03*
Y125315D02*
D03*
Y114685D02*
D03*
D12*
X68803Y257055D02*
D03*
D13*
X94000Y266110D02*
D03*
Y257055D02*
D03*
Y248000D02*
D03*
D14*
X64000Y60000D02*
D03*
X24000Y188000D02*
D03*
D15*
X55000Y34016D02*
D03*
X73000D02*
D03*
X15000Y162016D02*
D03*
X33000D02*
D03*
M02*
