%FSLAX25Y25*%
%MOIN*%
G70*
G01*
G75*
G04 Layer_Color=16711935*
%ADD10R,0.04331X0.06693*%
%ADD11R,0.06693X0.04331*%
%ADD12R,0.06299X0.12992*%
%ADD13R,0.06299X0.04724*%
%ADD14R,0.24606X0.26772*%
%ADD15R,0.05906X0.11811*%
%ADD16C,0.01000*%
%ADD17C,0.01969*%
%ADD18C,0.05906*%
%ADD19R,0.05906X0.05906*%
%ADD20C,0.19685*%
%ADD21C,0.07100*%
%ADD22C,0.07874*%
%ADD23R,0.07874X0.07874*%
%ADD24R,0.07874X0.07874*%
%ADD25R,0.05906X0.05906*%
%ADD26C,0.05512*%
%ADD27C,0.05000*%
%ADD28C,0.01181*%
%ADD29C,0.02000*%
%ADD30C,0.00787*%
%ADD31C,0.00600*%
%ADD32R,0.11024X0.03150*%
%ADD33R,0.03150X0.11024*%
%ADD34R,0.07480X0.03150*%
%ADD35R,0.03150X0.07480*%
%ADD36R,0.05131X0.07493*%
%ADD37R,0.07493X0.05131*%
%ADD38R,0.07099X0.13792*%
%ADD39R,0.07099X0.05524*%
%ADD40R,0.25406X0.27572*%
%ADD41R,0.06706X0.12611*%
%ADD42C,0.06706*%
%ADD43R,0.06706X0.06706*%
%ADD44C,0.20485*%
%ADD45C,0.08674*%
%ADD46R,0.08674X0.08674*%
%ADD47R,0.08674X0.08674*%
%ADD48R,0.06706X0.06706*%
%ADD49C,0.06312*%
%ADD50C,0.05800*%
%ADD51C,0.00394*%
%ADD52C,0.00100*%
D29*
X199000Y232000D02*
X198649Y232964D01*
X197760Y233477D01*
X196750Y233299D01*
X196090Y232513D01*
Y231487D01*
X196750Y230701D01*
X197760Y230523D01*
X198649Y231036D01*
X199000Y232000D01*
Y176000D02*
X198649Y176964D01*
X197760Y177477D01*
X196750Y177299D01*
X196090Y176513D01*
Y175487D01*
X196750Y174701D01*
X197760Y174523D01*
X198649Y175036D01*
X199000Y176000D01*
Y120000D02*
X198649Y120964D01*
X197760Y121477D01*
X196750Y121299D01*
X196090Y120513D01*
Y119487D01*
X196750Y118701D01*
X197760Y118523D01*
X198649Y119036D01*
X199000Y120000D01*
Y64000D02*
X198649Y64964D01*
X197760Y65477D01*
X196750Y65299D01*
X196090Y64513D01*
Y63487D01*
X196750Y62701D01*
X197760Y62523D01*
X198649Y63036D01*
X199000Y64000D01*
D51*
X87406Y10555D02*
Y17445D01*
X100594Y10555D02*
Y17445D01*
X87406D02*
X100594D01*
X87406Y10555D02*
X100594D01*
X117205Y240291D02*
X124291D01*
X117205Y253677D02*
X124291D01*
X117205Y240291D02*
Y253677D01*
X124291Y240291D02*
Y253677D01*
X88693Y230457D02*
Y237543D01*
X75307Y230457D02*
Y237543D01*
Y230457D02*
X88693D01*
X75307Y237543D02*
X88693D01*
X102555Y91406D02*
X109445D01*
X102555Y104594D02*
X109445D01*
X102555Y91406D02*
Y104594D01*
X109445Y91406D02*
Y104594D01*
X102555Y126594D02*
X109445D01*
X102555Y113406D02*
X109445D01*
Y126594D01*
X102555Y113406D02*
Y126594D01*
X17406Y134555D02*
Y141445D01*
X30594Y134555D02*
Y141445D01*
X17406D02*
X30594D01*
X17406Y134555D02*
X30594D01*
Y114555D02*
Y121445D01*
X17406Y114555D02*
Y121445D01*
Y114555D02*
X30594D01*
X17406Y121445D02*
X30594D01*
X51406Y10555D02*
Y17445D01*
X64594Y10555D02*
Y17445D01*
X51406D02*
X64594D01*
X51406Y10555D02*
X64594D01*
D52*
X170315Y202472D02*
Y241843D01*
Y202472D02*
X205748D01*
Y241843D01*
X170315D02*
X205748D01*
X170315Y146472D02*
Y185843D01*
Y146472D02*
X205748D01*
Y185843D01*
X170315D02*
X205748D01*
X170315Y90472D02*
Y129843D01*
Y90472D02*
X205748D01*
Y129843D01*
X170315D02*
X205748D01*
X170315Y34472D02*
Y73843D01*
Y34472D02*
X205748D01*
Y73843D01*
X170315D02*
X205748D01*
M02*
